<?xml version="1.0" encoding="UTF-8"?>
<svg id="Layer_1" xmlns="http://www.w3.org/2000/svg" version="1.1" viewBox="0 0 42 42">
  <!-- Generator: Adobe Illustrator 29.0.1, SVG Export Plug-In . SVG Version: 2.1.0 Build 192)  -->
  <path d="M27.3,19.6h-.1.1Z"/>
  <path d="M15.9,21.8h-3.6v3.9h3.6c1.2,0,2.2-.4,2.2-1.9s-.9-2-2.2-2Z"/>
  <path d="M17.7,17.7c0-1.4-1.1-1.6-2.2-1.6h-3.2v3.3h3.5c1.1,0,1.9-.5,1.9-1.7Z"/>
  <path d="M21,.4C9.6.4.4,9.6.4,21s9.2,20.6,20.6,20.6,20.6-9.2,20.6-20.6S32.4.4,21,.4ZM24.8,14.7h5.8v1.9h-5.8v-1.9ZM21.4,23.9c0,2.9-2.5,4.1-5.1,4.1h-6.9v-14.3h6.8c2.7,0,4.6,1,4.6,3.6s-.7,2.5-1.9,3c1.7.5,2.6,1.8,2.6,3.6h-.1ZM32.4,23.2h-7.4c0,1.8,1,2.9,2.5,2.9s1.9-.6,2.4-1.6h2.5c-.8,2.4-2.6,3.7-5,3.7s-5.3-2.2-5.3-5.4,2.2-5.4,5.3-5.4,5.2,2.6,5,5.8Z"/>
  <path d="M27.4,19.6c-1.8,0-2.3,1-2.4,1.8h4.6c-.3-1.4-.9-1.8-2.2-1.8Z"/>
</svg>