<?xml version="1.0" encoding="UTF-8"?>
<svg id="Layer_1" xmlns="http://www.w3.org/2000/svg" version="1.1" viewBox="0 0 42 42">
  <!-- Generator: Adobe Illustrator 29.3.0, SVG Export Plug-In . SVG Version: 2.1.0 Build 146)  -->
  <path d="M30.2,14.1c-.4-1-1.2-1.8-2.2-2.2-.7-.3-1.4-.4-2.2-.4-1.2,0-1.6,0-4.8,0h0c-3.1,0-3.5,0-4.8,0-.7,0-1.5.1-2.2.4-1,.4-1.8,1.2-2.2,2.2-.3.7-.4,1.4-.4,2.2,0,1.2,0,1.6,0,4.8s0,3.5,0,4.8c0,.7.1,1.5.4,2.2.4,1,1.2,1.8,2.2,2.2.7.3,1.4.4,2.2.4,1.2,0,1.6,0,4.8,0s3.5,0,4.8,0c.7,0,1.5-.1,2.2-.4,1-.4,1.8-1.2,2.2-2.2.3-.7.4-1.4.4-2.2,0-1.2,0-1.6,0-4.8s0-3.5,0-4.8c0-.7-.1-1.5-.4-2.2ZM21,27c-3.3,0-6-2.7-6-6s2.7-6,6-6,6,2.7,6,6-2.7,6-6,6ZM27.3,16.1c-.8,0-1.4-.6-1.4-1.4s.6-1.4,1.4-1.4,1.4.6,1.4,1.4-.6,1.4-1.4,1.4ZM24.9,21c0,2.2-1.8,3.9-3.9,3.9s-3.9-1.8-3.9-3.9,1.8-3.9,3.9-3.9,3.9,1.8,3.9,3.9ZM21,0C9.4,0,0,9.4,0,21s9.4,21,21,21,21-9.4,21-21S32.6,0,21,0ZM32.8,25.8c0,1-.2,1.9-.5,2.9-.6,1.6-1.9,2.9-3.5,3.5-.9.3-1.9.5-2.9.5-1.3,0-1.7,0-4.8,0s-3.6,0-4.8,0c-1,0-1.9-.2-2.9-.5-1.6-.6-2.9-1.9-3.5-3.5-.4-.9-.6-1.8-.6-2.8,0-1.3,0-1.7,0-4.8s0-3.6,0-4.8c0-1,.2-1.9.5-2.9.6-1.6,1.9-2.9,3.5-3.5.9-.3,1.9-.5,2.9-.5,1.3,0,1.7,0,4.8,0h0c3.2,0,3.6,0,4.8,0,1,0,1.9.2,2.9.5,1.6.6,2.9,1.9,3.5,3.5.3.9.5,1.9.5,2.9,0,1.3,0,1.7,0,4.8s0,3.6,0,4.8Z"/>
</svg>