<?xml version="1.0" encoding="UTF-8"?>
<svg id="Layer_1" xmlns="http://www.w3.org/2000/svg" version="1.1" viewBox="0 0 42 42">
  <!-- Generator: Adobe Illustrator 29.0.1, SVG Export Plug-In . SVG Version: 2.1.0 Build 192)  -->
  <defs>
    <style>
      .st0 {
        fill-rule: evenodd;
      }

      .st1 {
        fill: #fff;
      }
    </style>
  </defs>
  <circle class="st1" cx="21" cy="21" r="20.6"/>
  <path class="st0" d="M16,21.8h-3.7v3.9h3.6c1.2,0,2.2-.4,2.2-1.9s-.9-2-2.2-2ZM15.5,16.1h-3.2v3.3h3.5c1.1,0,1.9-.5,1.9-1.7,0-1.4-1.1-1.6-2.2-1.6h0ZM21.4,23.9c0,2.9-2.5,4.1-5.1,4.1h-6.9v-14.3h6.8c2.7,0,4.6,1,4.6,3.6,0,1.3-.7,2.5-1.9,3,1.7.5,2.6,1.8,2.6,3.6h0ZM24.8,14.7h5.8v1.9h-5.8v-1.9ZM27.4,19.6c-1.8,0-2.3,1-2.4,1.8h4.6c-.3-1.4-.9-1.8-2.3-1.8h0ZM25,23.2c0,1.8,1,2.9,2.5,2.9,1,0,1.9-.6,2.4-1.6h2.5c-.8,2.4-2.6,3.7-5,3.7s-5.3-2.2-5.3-5.4,2.2-5.4,5.3-5.4,5.2,2.6,5,5.8h-7.5Z"/>
</svg>