<?xml version="1.0" encoding="UTF-8"?>
<svg id="Layer_1" xmlns="http://www.w3.org/2000/svg" version="1.1" viewBox="0 0 279 74.8">
  <!-- Generator: Adobe Illustrator 29.0.1, SVG Export Plug-In . SVG Version: 2.1.0 Build 192)  -->
  <defs>
    <style>
      .st0 {
        fill: #fff;
      }
    </style>
  </defs>
  <path class="st0" d="M39.1,72.6c0-.3,3.9-3.6,4.5-4.3,4-4.2,8.4-8.1,12.7-12.2.8-.7,2.6-1.8,3.2-2.5,1.2-1.6,1.3-4.1,1.8-6s1.4-4.7,2.9-7c-4,.9-7.7,2.8-11.6,3.3-6.6,2.7-13.6,4-20.4,5.7s-24.2,6.6-29.9,3.9-2.2-2.1-2.3-2.4,0-1.9,0-1.9h.8c.2,0,.2-.4.4-.5.5-.3,2-.5,2.5-.7.5-.2,1.5-1.5,2.1,0s-3.9,1.9-3.9,2.3,2.8,1.1,3,1.1c6.3.8,15.6-1.9,21.8-3.3,4-.9,8.1-1.8,12.1-2.8,7.9-2.1,17.1-4.6,24.9-7.5s6.6-7.1,9.2-9.5c5.2-5,14.4-9,21.8-7.9s5,2.3,5.8,2.1c5.9-3.1,11.7-7,17.7-10,5.9-2.9,11.9-5.1,17.8-8.1s4.5-2.8,6.7-3.8.5,0,.7,0,0-.4,0-.4c.7-.2,2.9-.1,3.1.7.5,2.1-1.1,1.7-1.6,2.4s1,.3,1.3.3c12.5,1.5,10.1,9.3,5.4,17.6-7.3,13-20.4,23.5-31.8,32.4s-.4,0-.6,0c0,.2.5.6.7.7,1.9.5,4.8.3,6.8,1.1,25.4-1.5,50.5-4.1,75.7-7.1,16.9-2,35.5-4.3,52.1-8.1,4.3-1,12.6-2.9,16.4-4.5s3.8-3,5.9-3.1,2.3,0,2.3.2v3.1h-.8c-9.8,4.6-25,7.4-35.7,9.4-30.8,5.9-63.6,9.4-94.9,11.8-10.7.8-21.9,2.7-32.3-.6-6.1,3-12.6,7-19.1,9-9,2.7-24.7,5.1-32.4-1.8s-1.3-2.3-2.3-2.1-2.4,1.8-2.9,2.2c-4.7,3.3-9.6,7-14.4,9.8s-1.7,1.4-1.8,1.4h-3.2c0-.5-.2-1.8,0-2.2l-.2-.2ZM148.4,20.7c3.9-6.3,7.6-14.4-3.7-14.2s-6.8,1.6-10.5,3.9c-8.2,5.2-16.1,11-23.8,16.4s-3,1.6-3.1,1.8c-.4.8,2.1,3.5,2.7,4.4,1.7,2.9,2.3,5.9,3.4,9l2.4,9.3c.5.6.9.2,1.6,0,8.9-4,25.7-22.2,31-30.6ZM126.3,12.8h-.3c0,.1.3.1.3.1h0ZM125.2,13.3h-.4c-.3.2.7.2.4,0ZM124.5,13.9h-.9c0,.2.8.2.9,0ZM123.5,14.7c0-.4-.5-.2-.8-.1-2.9,1.1-6.2,3.6-9,5s-5.4,2.3-8,3.5-1.3.8-1.6,1-1.3,0-1.2.8,1.8,1.7,2,1.8c1.2.4,8.3-5.7,9.8-6.7s4.2-2.3,6.2-3.6,1.6-1.4,2.6-1.6h0ZM96.2,24.8c.9-.9-5.4-1.6-5.8-1.6-4.9,0-13.1,4.5-16.8,7.8-3.7,3.3-3.7,3.9-3.4,4l25.9-10.2h.1ZM100.6,27.1c-.6-.2-1.2-.3-1.8-.1-8.8,6.5-17.9,12.1-26,19.6l-9,6.9c.9.3.9.7.9,1.6l6.2-3.8c7.4-5.8,15.1-11.4,22.7-16.8,1-.7,8.8-5.4,8.7-5.9s-1.5-1.5-1.7-1.5ZM105.7,32c-.2-.4-1-1.1-1.5-1.1s-5.2,3.5-6,4c-5.9,4-12.6,8.9-18.2,12.9s-9.3,6.4-13.6,9.7-1.6,1.3-1.6,1.4c-.6,1,.2.9.3,1,.4.6,1.8,2.3,2.4,2.7,3.6,2.4,15.5,2.7,19.8,1.8,6.4-1.4,19.6-5.8,25.1-9.7.8-.5.9-.9.7-1.9s-.5-.6-.5-.8c-1.6-6-3.5-15.1-6.9-20.1h0ZM87.5,31.4c-.3,0-.8,0-.9.3.2,0,.8,0,.9-.3ZM85.9,32.3c.8-.7.3-.5-.6-.3-1.8.5-3.7,1.6-5.4,2.2s-.8,0-1.1,0c-1.4.5-10.8,4.5-11.4,5.1s-1.5,2.5-1.6,2.8c-1.2,2.5-1.8,5.6-2.9,8.2.2,0,2.3-2.1,2.6-2.4,6.6-5.4,14-10,20.4-15.8v.2ZM60.7,56.9l-13.7,11.1c1.7-.9,3.5-1.9,5.2-3s3.3-2.7,4.7-3.8,5-2.9,3.8-4.2h0ZM46.7,68.2h-.3c0,0,.3,0,.3,0h0ZM45.9,68.8h0c0,0,0,0,0,0h0Z"/>
</svg>